<svg version="1.1" xmlns="http://www.w3.org/2000/svg" xmlns:xlink="http://www.w3.org/1999/xlink" viewBox="355 225 306 306">
	<path d="M508,225.9c-84,0-152.1,68.1-152.1,152.1S424,530.1,508,530.1S660.1,462,660.1,378S592,225.9,508,225.9z
		 M508,510.9c-73.4,0-132.9-59.5-132.9-132.9S434.6,245.1,508,245.1S640.9,304.6,640.9,378S581.4,510.9,508,510.9z"/>
	<path d="M537.9,265.7v19.6c36.4,11.7,63.4,44.2,67.1,83.6h-25.6h-19.3H506v18.5h54.1c-4.4,24.8-26,43.7-52.1,43.7
		c-29.2,0-52.9-23.7-52.9-52.9c0-3.1,0.3-6.2,0.8-9.2c1.4-8.1,4.7-15.6,9.4-22c9.6-13.1,25.2-21.7,42.7-21.7s33.1,8.5,42.7,21.7
		h22.2C561.2,322.7,536.6,306,508,306s-53.2,16.6-64.9,40.7c-3.3,6.8-5.5,14.2-6.5,22H411c3.7-39.3,30.7-71.9,67.1-83.6v-19.6
		c-49.7,13.2-86.4,58.5-86.4,112.3s36.6,99.2,86.4,112.3v-19.6c-36.4-11.7-63.4-44.2-67.1-83.6h25.6c4.5,35.4,34.7,62.7,71.4,62.7
		s66.8-27.4,71.4-62.7H605c-3.7,39.3-30.7,71.9-67.1,83.6v19.6c49.7-13.2,86.4-58.5,86.4-112.3S587.6,278.8,537.9,265.7z"/>
</svg>
